<?xml version="1.0" encoding="UTF-8"?>
<!DOCTYPE svg PUBLIC "-//W3C//DTD SVG 1.1//EN" "http://www.w3.org/Graphics/SVG/1.1/DTD/svg11.dtd">
<!-- Creator: CorelDRAW X6 -->
<svg xmlns="http://www.w3.org/2000/svg" xml:space="preserve" width="297mm" height="420mm" version="1.1" style="shape-rendering:geometricPrecision; text-rendering:geometricPrecision; image-rendering:optimizeQuality; fill-rule:evenodd; clip-rule:evenodd"
viewBox="0 0 29700 42000"
 xmlns:xlink="http://www.w3.org/1999/xlink">
 <defs>
  <style type="text/css">
   <![CDATA[
    .str0 {stroke:#2B2A29;stroke-width:20}
    .fil1 {fill:#FEFEFE}
    .fil0 {fill:black}
    .fil2 {fill:#FEFEFE;fill-rule:nonzero}
   ]]>
  </style>
 </defs>
 <g id="Layer_x0020_2">
  <metadata id="CorelCorpID_0Corel-Layer"/>
  <rect class="fil0 str0" x="66013" y="-24332" width="38628" height="16620"/>
  <path class="fil1" d="M75297 -23012c-229,212 -869,523 -1136,565 166,-170 810,-530 1136,-565zm3174 4335c-281,558 -710,741 -1147,800 -25,231 21,122 10,193l-90 24c-110,-497 451,-1014 1227,-1017zm1093 1021c-447,-324 991,-1349 2081,-1186 -103,155 -1139,1238 -1311,1266 -170,27 -652,5 -770,-80zm2934 -1163c82,-2 124,52 324,-136 -143,-113 -538,-34 -773,-53 413,-403 1424,-1353 1849,-1708 251,-210 608,-380 634,-529 -383,-146 -2262,1820 -2598,2151 -94,92 -908,105 -1541,270 -609,158 -1242,474 -1230,1133 -178,65 -1948,499 -1688,-38 662,-213 1548,-895 1151,-1190 -267,-198 -1997,422 -1674,1341 -389,278 -3043,162 -3375,118 1027,-285 1446,-146 1826,-219 -2,-197 -199,-13 -903,-108 418,-154 780,-283 1188,-483 1150,-563 1251,-554 1040,-614 -271,-143 -1865,108 -2323,148 -184,16 -553,-70 -613,181 761,-6 1534,-256 2602,-205 -728,328 -1460,682 -2200,951 -257,94 -193,62 -1164,333 -176,127 121,148 -372,303 -916,288 -2942,584 -3787,627 -529,27 -1985,-21 -2130,-393 -379,-973 4034,-2437 4907,-2693 1123,-329 2534,-607 3729,-689 558,-38 753,-152 137,-270 -830,-159 -2529,-382 -1692,-1517 162,-219 1853,-778 1902,-1003 -42,-300 -274,-243 -513,-148 -1538,614 -1038,1107 -2616,1258 -242,23 -1066,50 -1328,-149 -46,-293 194,-428 71,-522 -367,43 -367,594 -229,705 334,266 1928,102 2508,-150 -540,1103 277,1218 1310,1578 -350,290 -4095,310 -7749,2623 -1324,838 -513,1413 663,1487 1757,111 3618,-305 5302,-720 779,-224 1517,-154 2429,-152 1339,2 1420,-186 1524,-146 456,171 1287,177 1760,13 528,-182 236,-169 597,-41 212,75 520,76 691,143 -901,819 -2751,2422 -3450,3013 -310,263 -1289,514 -1747,428 -481,-90 134,-548 -211,-496 -104,16 -1052,1243 1564,455 -238,247 -4781,5054 -5238,5490 -100,94 -371,216 -313,398 202,68 335,-230 423,-322 459,-471 5227,-5583 5525,-5724 1791,-852 3960,-2441 5743,-3474 600,-348 1084,-765 1795,-1071l-524 381c-274,239 -1199,974 -865,1321 496,80 2324,-1059 2720,-1194 -69,136 -220,197 -68,381 471,140 1458,-343 1947,-439 -98,313 19,361 204,125 100,-128 335,-209 236,-343 -198,-221 -2225,766 -2207,487 224,-621 920,-647 908,-746 -76,-127 -142,-116 -287,-46 -617,300 -2553,1433 -3173,1489 87,-703 1578,-1589 2125,-1836 324,-146 175,-612 -385,-234 -133,90 -182,174 -352,248 -678,298 -1418,883 -2029,1225 -1614,904 -3616,2469 -5409,3374 333,-375 2353,-2063 2945,-2628 420,-396 316,-196 424,-296 290,-267 -189,57 432,-514 789,-725 939,-930 952,-933 85,-18 309,-48 669,-6z"/>
  <path class="fil1" d="M89826 -18981c-1411,368 -1749,1439 -1294,1701 361,208 1600,-291 1994,-591 -817,1209 -3189,3833 -3220,4183l144 -3c2645,-3412 4809,-6088 7628,-9350 420,-446 734,-840 1364,-855 247,929 -1459,3022 -3172,4460 -133,111 -497,239 -442,443 247,76 592,-255 717,-381 943,-834 2062,-1906 2749,-3026 381,-699 542,-1333 351,-1595 -320,-270 -912,17 -1321,433 -1599,1826 -2869,3310 -4346,5128 -371,456 -1421,880 -1438,887 -1473,463 -786,-491 -590,-689 260,-264 511,-435 1086,-442 -213,704 -1006,692 -906,837 883,66 1759,-1221 695,-1140z"/>
  <path class="fil1" d="M88230 -19993c-203,183 67,464 282,283 163,-192 -78,-435 -282,-283z"/>
  <path class="fil1" d="M103972 -17744c-203,183 67,464 282,283 163,-192 -78,-435 -282,-283z"/>
  <path class="fil2" d="M102213 -23285c2753,-95 -394,2586 -693,2618 -138,15 -197,-128 -47,-221 477,-299 1674,-1625 1668,-1982 -4,-219 -321,-255 -640,-265 -575,-19 -2111,533 -3474,1988 -2074,2214 -3593,5056 317,4564 2156,-271 2570,-1495 2840,-1749 284,-267 652,-24 465,191 -1822,2099 -3257,3374 -5976,4402 -287,108 -616,109 -770,-147 -110,-183 105,-548 337,-587 13,12 78,123 22,189 -987,1161 3452,-692 4855,-2630 -1386,766 -3899,782 -4384,-234 -690,-1445 3127,-5991 5479,-6136z"/>
 </g>
</svg>
